<svg width="31" height="31" viewBox="0 0 31 31" fill="none" xmlns="http://www.w3.org/2000/svg">
<g filter="url(#filter0_d)">
<path d="M26.1079 12.3291L16.0518 2.28025C15.9794 2.2077 15.8933 2.15015 15.7987 2.11088C15.704 2.07161 15.6025 2.05139 15.5 2.05139C15.3975 2.05139 15.296 2.07161 15.2013 2.11088C15.1067 2.15015 15.0206 2.2077 14.9482 2.28025L4.89209 12.3291C4.59912 12.6221 4.43311 13.02 4.43311 13.435C4.43311 14.2969 5.13379 14.9975 5.99561 14.9975H7.05518V22.1679C7.05518 22.6001 7.4043 22.9492 7.83643 22.9492H13.9375V17.4804H16.6719V22.9492H23.1636C23.5957 22.9492 23.9448 22.6001 23.9448 22.1679V14.9975H25.0044C25.4194 14.9975 25.8174 14.834 26.1104 14.5386C26.7183 13.9282 26.7183 12.9394 26.1079 12.3291Z" fill="#6AB1D7"/>
</g>
<defs>
<filter id="filter0_d" x="-1" y="0" width="33" height="33" filterUnits="userSpaceOnUse" color-interpolation-filters="sRGB">
<feFlood flood-opacity="0" result="BackgroundImageFix"/>
<feColorMatrix in="SourceAlpha" type="matrix" values="0 0 0 0 0 0 0 0 0 0 0 0 0 0 0 0 0 0 127 0" result="hardAlpha"/>
<feOffset dy="4"/>
<feGaussianBlur stdDeviation="2"/>
<feComposite in2="hardAlpha" operator="out"/>
<feColorMatrix type="matrix" values="0 0 0 0 0 0 0 0 0 0 0 0 0 0 0 0 0 0 0.25 0"/>
<feBlend mode="normal" in2="BackgroundImageFix" result="effect1_dropShadow"/>
<feBlend mode="normal" in="SourceGraphic" in2="effect1_dropShadow" result="shape"/>
</filter>
</defs>
</svg>
